<?xml version="1.0" encoding="UTF-8"?><svg xmlns="http://www.w3.org/2000/svg" xmlns:xlink="http://www.w3.org/1999/xlink" height="120.9" preserveAspectRatio="xMidYMid meet" version="1.0" viewBox="0.0 -0.4 126.1 120.9" width="126.1" zoomAndPan="magnify"><linearGradient gradientUnits="userSpaceOnUse" id="a" x1="63" x2="63" xlink:actuate="onLoad" xlink:show="other" xlink:type="simple" xmlns:xlink="http://www.w3.org/1999/xlink" y1="0" y2="120.44"><stop offset="0" stop-color="#efcb58"/><stop offset="1" stop-color="#cc57c7"/></linearGradient><path d="M125.866,22.443c-0.131-1.29-0.822-2.445-1.896-3.172l-1.636-1.104 c-1.317-0.889-3.052-0.76-4.225,0.309l-0.537,0.489c-0.107,0.098-0.257,0.126-0.393,0.08c-0.136-0.048-0.199-0.149-0.226-0.205 c-0.025-0.057-0.061-0.172,0.024-0.387c0.551-1.393-0.069-3.001-1.447-3.681c-1.081-0.532-2.391-0.322-3.254,0.526l-0.887,0.874 l-0.739-0.329c-1.27-0.564-2.741-0.08-3.425,1.131l-4.853,8.601c-0.313,0.557-0.386,1.2-0.202,1.813s0.599,1.11,1.167,1.401 c0.459,0.236,0.673,0.763,0.492,1.301c-0.167,0.492-0.693,0.771-1.19,0.64l-1.651-0.438c-0.793-0.208-1.627-0.106-2.343,0.295 l-0.648,0.361c-0.469,0.264-1.053,0.17-1.418-0.231l-1.636-1.797c-0.628-0.69-1.589-1.007-2.5-0.834 c-0.217,0.043-0.441-0.024-0.603-0.171l-0.899-0.826c-0.183-0.167-0.263-0.418-0.21-0.654c0.468-2.082,0.087-3.725-1.074-4.625 c-1.078-0.836-2.764-0.759-5.011,0.232c-1.415,0.622-2.428,1.91-2.712,3.444l-1.151,6.231c-0.165,0.894-1.028,1.485-1.918,1.32 l-9.917-1.827c-0.441-0.081-0.788-0.417-0.883-0.853c-0.21-0.962-0.872-1.775-1.771-2.176l-0.646-0.288 c-1.059-0.473-2.285-0.319-3.199,0.404l-0.39,0.311c-0.319,0.252-0.748,0.311-1.121,0.152l-4.142-1.75 c-0.685-0.29-1.05-1.049-0.829-1.839c0.295-1.051,0.128-2.182-0.457-3.103c-0.586-0.921-1.539-1.552-2.615-1.73l-7.613-1.265 c-0.333-0.056-0.591-0.316-0.643-0.649c-0.038-0.248,0.041-0.491,0.217-0.669c0.176-0.177,0.422-0.254,0.666-0.223l1.759,0.257 c1.008,0.146,2.034-0.351,2.538-1.241c0.335-0.592,0.415-1.304,0.22-1.955c-0.199-0.659-0.646-1.194-1.262-1.507l-1.122-0.569 c-0.9-0.457-1.504-1.33-1.617-2.379c-0.042-0.395,0.157-0.768,0.507-0.951l1.011-0.529c0.576-0.303,1.047-0.794,1.328-1.384 l0.382-0.809c0.468-0.985,0.487-2.125,0.055-3.125c-0.433-1.002-1.277-1.769-2.316-2.104l-3.056-0.983 c-2.144-0.694-4.456,0.067-5.748,1.896c-1.821,2.577-3.593,4.165-4.86,4.357c-1.936,0.291-4.128-0.799-5.258-1.478 c-1.138-0.683-2.566-0.498-3.492,0.461c-1.01,1.043-1.049,2.714-0.089,3.804c0.495,0.563,0.7,1.337,0.549,2.071l-0.337,1.631 c-0.201,0.973,0.031,1.982,0.638,2.769c0.606,0.787,1.523,1.27,2.517,1.324l2.162,0.116c0.326,0.019,0.611,0.227,0.729,0.533 c0.08,0.21,0.072,0.438-0.022,0.642c-0.095,0.205-0.264,0.358-0.477,0.434l-1.458,0.513c-1.288,0.453-2.146,1.676-2.135,3.043 l0.014,1.454c0.004,0.426-0.223,0.825-0.591,1.041l-3.865,2.267c-0.552,0.321-0.945,0.838-1.11,1.452l-0.309,1.143 c-0.033,0.122-0.122,0.224-0.24,0.272c-0.856,0.352-1.442,1.176-1.491,2.097l-0.043,0.778c-0.016,0.278-0.185,0.521-0.44,0.632 l-1.632,0.708c-0.29,0.125-0.63,0.053-0.84-0.187c-0.567-0.642-1.382-0.969-2.24-0.904c-0.855,0.067-1.61,0.521-2.071,1.243 l-2.173,3.402c-0.372,0.582-0.485,1.3-0.313,1.968c0.174,0.669,0.621,1.24,1.229,1.569c0.178,0.096,0.278,0.288,0.256,0.488 l-0.076,0.694c-0.115,1.055,0.45,2.069,1.41,2.526l0.454,0.215c0.178,0.084,0.288,0.266,0.282,0.462l-0.094,3.117 C6.753,49.427,0,50.7,0,53.303c0,2.263,3.563,3.09,4.735,3.362c0.511,0.118,0.721,0.487,0.8,0.696 c0.147,0.387,0.087,0.826-0.16,1.174c-0.521,0.732-0.839,1.461-0.946,2.163c-0.357,2.336,2.997,5.413,3.674,6.007 c1.274,1.116,3.673,2.917,5.419,2.408c1.622-0.472,2.652-2.729,3.063-6.713c0.025-0.247,0.2-0.446,0.445-0.51 c0.272-0.07,0.469,0.063,0.541,0.122c0.084,0.069,0.223,0.222,0.208,0.468c-0.067,1.128,0.005,2.088,0.215,2.851 c0.18,0.653,0.485,1.262,0.908,1.805c0.499,0.643,0.639,1.545,0.376,2.415c-0.26,0.86-0.449,1.761-0.563,2.679 c-0.386,3.077,1.093,11.873,2.595,15.428c0.853,2.021,2.39,3.808,3.529,4.95c0.576,0.577,0.797,1.454,0.575,2.289 c-0.227,0.855-0.303,1.742-0.225,2.636c0.122,1.402,1.269,3.345,3.406,5.773c0.854,0.969,1.365,2.199,1.44,3.463 c0.147,2.469,0.577,5.871,1.789,8.063c1.846,3.34,6.066,5.609,8.89,5.608c0.359,0,0.696-0.036,1.002-0.112 c1.601-0.396,2.752-2.37,3.423-5.865c0.089-0.467,0.457-0.842,0.938-0.954c1.674-0.393,2.755-2.027,2.461-3.723l-0.201-1.154 c-0.102-0.585,0.219-1.151,0.778-1.377c1.017-0.409,1.878-0.928,2.559-1.542c2.183-1.965,2.328-6.037,2.29-7.696 c-0.022-0.948-0.139-2.269-0.347-3.926c-0.021-0.174,0.04-0.361,0.161-0.489c0.091-0.097,0.203-0.129,0.311-0.134 c0.474,0.032,0.929-0.051,1.344-0.252c0.603-0.292,1.352-0.998,1.498-2.708c0.025-0.289,0.247-0.507,0.517-0.507h0.107 c1.286,0,2.361-0.964,2.501-2.243l0.148-1.365c0.018-0.159,0.109-0.304,0.248-0.386l7.036-4.208 c0.174-0.104,0.312-0.259,0.396-0.442l3.623-7.927c0.101-0.221,0.282-0.306,0.382-0.336s0.298-0.063,0.507,0.063 c0.92,0.56,2.112,0.493,2.966-0.167l0.806-0.624c1.375-1.065,2.245-2.67,2.389-4.402l0.215-2.615 c0.054-0.657,0.394-1.252,0.932-1.632c1.007-0.71,1.649-1.804,1.762-2.999c0.091-0.946,0.345-1.201,0.393-1.213 c0.206-0.046,0.845-0.203,1.482,1.3c0.543,1.283,1.83,2.093,3.213,2.039c0.906-0.043,1.734-0.44,2.334-1.121 c0.599-0.68,0.889-1.551,0.817-2.453l-0.752-9.49c-0.111-1.402-1.117-2.579-2.504-2.927c-0.914-0.229-1.056-0.7-1.073-1.129 c-0.033-0.833,0.432-1.535,1.381-2.088c0.88-0.512,1.472-1.401,1.623-2.439l0.124-0.841c0.214-1.447-0.517-2.873-1.813-3.547 l-0.179-0.093c-0.255-0.132-0.377-0.428-0.291-0.702l0.29-0.925c0.067-0.214,0.224-0.315,0.311-0.357 c0.088-0.041,0.267-0.099,0.476-0.014l1.114,0.448c0.368,0.149,0.796,0.057,1.079-0.22c0.032-0.031,0.771-0.74,1.532-0.372 c0.219,0.105,0.383,0.368,0.486,0.779c0.376,1.497,1.619,2.611,3.166,2.839c0.738,0.108,1.338,0.646,1.548,1.457 c0.492,1.903,2.389,3.104,4.327,2.73c5.082-0.978,6.416-0.279,6.475-0.055c0.197,0.757-0.838,1.854-2.701,2.863 c-1.318,0.714-2.095,2.08-2.026,3.563l0.1,2.156c0.033,0.71,0.362,1.381,0.903,1.841s1.253,0.681,1.96,0.596 c1.2-0.138,2.152-1.111,2.265-2.313l0.084-0.885c0.025-0.266,0.195-0.489,0.444-0.584l0.8-0.304c0.224-0.087,0.482-0.047,0.672,0.1 c0.246,0.191,0.335,0.525,0.216,0.811c-0.496,1.183-0.991,2.947-0.541,4.646c0.291,1.101,0.96,2.196,2.105,3.446 c0.569,0.623,1.402,0.931,2.244,0.83c0.837-0.104,1.576-0.61,2.002-1.4c0.586-1.085,0.664-2.367,0.215-3.518l-0.244-0.619 l0.144-0.094c0.499-0.326,0.771-0.919,0.692-1.51l-0.337-2.564c1.643,0.111,3.206-0.946,3.694-2.583l1.203-4.028 c0.236-0.797,0.084-1.671-0.448-2.392c-0.208-0.281-0.149-0.67,0.14-0.924c0.771-0.679,1.244-1.498,1.367-2.368 c0.154-1.087-0.229-2.437-1.142-4.014c-0.126-0.217-0.105-0.495,0.052-0.709l4.268-5.799c0.641-0.87,0.934-1.943,0.826-3.021 L125.866,22.443z M123.541,25.383l-4.268,5.799c-0.629,0.855-0.695,1.993-0.171,2.896c0.653,1.129,0.978,2.124,0.892,2.73 c-0.057,0.397-0.295,0.783-0.709,1.148c-1.068,0.94-1.252,2.494-0.388,3.667c0.122,0.164,0.16,0.381,0.102,0.578l-1.202,4.027 c-0.246,0.824-1.098,1.313-1.932,1.118c-0.503-0.115-1.025,0.019-1.405,0.362c-0.381,0.345-0.567,0.854-0.5,1.362l0.377,2.864 l-0.21,0.139c-0.584,0.381-0.845,1.112-0.612,1.84L113.9,54.9c0.235,0.602,0.194,1.272-0.136,1.885 c-0.132,0.244-0.347,0.305-0.463,0.319c-0.094,0.011-0.331,0.016-0.523-0.195c-0.906-0.989-1.445-1.842-1.647-2.608 c-0.307-1.154,0.076-2.464,0.451-3.359c0.469-1.118,0.126-2.419-0.834-3.165c-0.736-0.57-1.734-0.721-2.608-0.388l-0.8,0.304 c-0.967,0.367-1.627,1.235-1.724,2.265l-0.085,0.885c-0.024,0.268-0.236,0.483-0.502,0.515c-0.216,0.028-0.365-0.073-0.436-0.133 c-0.071-0.06-0.191-0.193-0.201-0.409l-0.1-2.156c-0.033-0.711,0.343-1.367,0.981-1.713c3.635-1.968,4.01-3.873,3.684-5.125 c-0.517-1.985-3.392-2.446-8.788-1.405c-0.895,0.176-1.783-0.383-2.036-1.355c-0.39-1.505-1.635-2.622-3.171-2.847 c-0.743-0.109-1.338-0.639-1.517-1.35c-0.318-1.26-1.021-1.832-1.555-2.091c-1.288-0.622-2.502-0.207-3.28,0.318l-0.57-0.229 c-0.668-0.27-1.427-0.246-2.077,0.063c-0.651,0.308-1.148,0.879-1.363,1.565l-0.29,0.924c-0.378,1.203,0.16,2.497,1.276,3.076 l0.178,0.093c0.543,0.281,0.848,0.877,0.759,1.481l-0.124,0.842c-0.063,0.426-0.306,0.8-0.65,1.001 c-1.594,0.927-2.437,2.311-2.373,3.897c0.061,1.502,1.003,2.591,2.585,2.987c0.553,0.139,0.953,0.6,0.996,1.146l0.752,9.49 c0.028,0.357-0.087,0.703-0.324,0.973c-0.238,0.271-0.567,0.429-0.926,0.445c-0.537,0.041-1.057-0.297-1.278-0.821 c-1.17-2.757-3.034-2.64-3.784-2.466c-0.765,0.181-1.72,0.842-1.923,2.97c-0.059,0.614-0.396,1.181-0.924,1.554 c-1.024,0.723-1.67,1.854-1.773,3.103l-0.215,2.615c-0.097,1.175-0.687,2.263-1.619,2.984l-0.806,0.624 c-0.201,0.157-0.483,0.173-0.704,0.04c-0.639-0.389-1.417-0.486-2.132-0.265c-0.715,0.22-1.303,0.736-1.613,1.416l-3.493,7.644 l-6.77,4.048c-0.673,0.403-1.125,1.108-1.209,1.887l-0.148,1.364c-0.028,0.262-0.249,0.46-0.513,0.46h-0.107 c-1.316,0-2.395,1.005-2.509,2.336c-0.056,0.646-0.229,1.007-0.377,1.078c-0.099,0.047-0.206,0.063-0.332,0.059 c-0.705-0.049-1.402,0.224-1.903,0.753c-0.529,0.559-0.789,1.348-0.693,2.112c0.196,1.568,0.311,2.856,0.331,3.725 c0.052,2.224-0.349,5.011-1.629,6.164c-0.507,0.457-1.168,0.851-1.968,1.173c-1.441,0.582-2.265,2.052-2.001,3.574l0.201,1.154 c0.113,0.652-0.303,1.281-0.946,1.433c-1.248,0.292-2.208,1.283-2.446,2.525c-0.531,2.771-1.356,4.155-1.938,4.3 c-1.721,0.423-5.998-1.515-7.661-4.521c-0.804-1.456-1.352-4.019-1.543-7.216c-0.102-1.707-0.789-3.363-1.935-4.666 c-2.517-2.858-2.878-4.187-2.916-4.625c-0.058-0.662-0.002-1.318,0.166-1.95c0.402-1.521-0.017-3.136-1.094-4.214 c-1.014-1.017-2.374-2.59-3.103-4.314c-1.35-3.198-2.794-11.678-2.452-14.402c0.101-0.807,0.267-1.597,0.493-2.348 c0.451-1.489,0.186-3.066-0.711-4.222c-0.261-0.335-0.448-0.708-0.559-1.107c-0.15-0.544-0.201-1.306-0.147-2.201 c0.049-0.825-0.29-1.601-0.932-2.13c-0.472-0.39-1.064-0.598-1.666-0.598c-0.215,0-0.431,0.027-0.643,0.081 c-1.051,0.27-1.83,1.171-1.94,2.242c-0.353,3.421-1.169,4.863-1.631,4.998c-0.312,0.079-1.61-0.297-3.543-1.992 C7.316,63.355,6.317,61.575,6.405,61c0.06-0.391,0.262-0.83,0.601-1.307c0.634-0.893,0.783-2.03,0.399-3.041 c-0.376-0.991-1.185-1.696-2.219-1.936c-2.495-0.58-3.05-1.187-3.161-1.363c0.773-0.896,6.185-2.112,11.823-2.64 c0.503-0.048,0.892-0.462,0.907-0.966l0.121-3.997c0.029-0.989-0.529-1.903-1.425-2.329l-0.454-0.215 c-0.19-0.09-0.303-0.291-0.279-0.5l0.076-0.694c0.111-1.014-0.396-1.981-1.293-2.467c-0.165-0.089-0.223-0.232-0.243-0.311 s-0.039-0.232,0.062-0.391l2.173-3.402c0.121-0.189,0.318-0.308,0.542-0.325c0.226-0.017,0.438,0.068,0.586,0.236 c0.785,0.887,2.043,1.168,3.135,0.694l1.631-0.707c0.955-0.414,1.584-1.317,1.641-2.356l0.044-0.779 c0.008-0.156,0.107-0.296,0.252-0.355c0.691-0.282,1.22-0.882,1.414-1.603l0.309-1.144c0.027-0.103,0.096-0.191,0.188-0.246 l3.867-2.268c0.984-0.577,1.589-1.644,1.579-2.784l-0.014-1.454c-0.004-0.511,0.316-0.968,0.799-1.138l1.458-0.513 c0.727-0.256,1.305-0.782,1.628-1.48c0.322-0.698,0.35-1.479,0.075-2.194c-0.397-1.043-1.374-1.757-2.489-1.817l-2.161-0.116 c-0.417-0.023-0.786-0.218-1.04-0.548c-0.255-0.329-0.348-0.735-0.264-1.144l0.337-1.631c0.277-1.347-0.099-2.766-1.008-3.798 c-0.275-0.313-0.264-0.791,0.042-1.107c0.263-0.271,0.678-0.319,1.01-0.12c1.662,0.997,4.157,2.111,6.587,1.739 c1.882-0.284,3.966-2.027,6.193-5.18c0.785-1.109,2.189-1.569,3.501-1.147l3.056,0.983c0.499,0.161,0.887,0.515,1.095,0.994 c0.207,0.479,0.198,1.003-0.026,1.476l-0.382,0.808c-0.095,0.201-0.255,0.367-0.449,0.47l-1.011,0.529 c-1.082,0.568-1.697,1.721-1.562,2.98c0.182,1.681,1.189,3.141,2.695,3.904l1.122,0.569c0.165,0.084,0.229,0.225,0.251,0.301 c0.023,0.076,0.049,0.229-0.044,0.393c-0.101,0.178-0.308,0.272-0.508,0.248l-1.76-0.257c-0.885-0.132-1.748,0.16-2.375,0.793 s-0.909,1.501-0.773,2.382c0.184,1.189,1.104,2.12,2.291,2.317l7.613,1.265c0.524,0.087,0.97,0.382,1.255,0.831 c0.285,0.448,0.363,0.977,0.199,1.563c-0.472,1.684,0.387,3.467,1.997,4.146l4.141,1.75c1.046,0.442,2.252,0.28,3.144-0.428 l0.39-0.31c0.326-0.258,0.761-0.314,1.142-0.146l0.646,0.289c0.32,0.143,0.556,0.432,0.631,0.775 c0.269,1.226,1.239,2.164,2.474,2.393l9.917,1.827c0.958,0.176,1.927-0.029,2.729-0.582c0.803-0.552,1.342-1.384,1.519-2.342 l1.151-6.231c0.163-0.883,0.743-1.622,1.551-1.978c1.693-0.745,2.649-0.74,2.979-0.482c0.718,0.558,0.483,2.009,0.349,2.608 c-0.209,0.932,0.101,1.914,0.808,2.563l0.899,0.826c0.625,0.574,1.492,0.819,2.332,0.663c0.236-0.048,0.483,0.037,0.646,0.215 l1.635,1.797c0.994,1.092,2.587,1.354,3.873,0.632l0.647-0.361c0.262-0.146,0.564-0.188,0.855-0.107l1.651,0.438 c1.517,0.404,3.097-0.448,3.613-1.982c0.484-1.436-0.143-2.979-1.491-3.671c-0.106-0.055-0.147-0.146-0.162-0.196 c-0.016-0.05-0.031-0.149,0.028-0.255l4.853-8.602c0.173-0.308,0.548-0.429,0.869-0.287l1.362,0.606 c0.373,0.169,0.814,0.088,1.108-0.2l1.372-1.353c0.256-0.252,0.644-0.318,1.002-0.139c0.415,0.204,0.606,0.701,0.404,1.214 c-0.241,0.61-0.225,1.275,0.049,1.872c0.272,0.597,0.764,1.044,1.381,1.261c0.832,0.294,1.752,0.105,2.403-0.488l0.537-0.49 c0.488-0.444,1.212-0.497,1.759-0.128l1.635,1.103c0.581,0.394,0.955,1.019,1.025,1.717l0.112,1.103 C124.047,24.331,123.888,24.912,123.541,25.383z" fill="url(#a)"/></svg>